<?xml version="1.0" encoding="UTF-8"?>
<svg id="Layer_2" data-name="Layer 2" xmlns="http://www.w3.org/2000/svg" viewBox="0 0 217.92 203.58">
  <defs>
    <style>
      .cls-1 {
        stroke-width: 0px;
        opacity: 0.05;
      }
    </style>
  </defs>
  <g id="Layer_1-2" data-name="Layer 1">
    <path class="cls-1" d="m213.16,117.51c-12.87,2.13-22.57,9.37-32.75,16.67,9.18,9.47,10.8,21.82,14.39,33.34,2.21,7.08,4.28,14.21,6.47,21.53.25-.18-.08.22-.25.15-8.93-3.27-18-2.46-27.11-1.03-2.96.46-5.96.78-8.95.92-10.68.5-19.69-2.82-25.93-12.14-8.22,8.85-16.16,17.39-24.11,25.95-3.29-7.53-10.01-12.97-16.15-18.9-1.65-1.59-2.92-1.49-4.65.07-6.12,5.57-13.51,8.61-21.65,9.35-10.56.96-20.96,1.99-28.35,10.16-2.86-9-5.21-17.77-8.46-26.18-2.15-5.54-5.44-10.66-8.51-15.81-4.9-8.23-5.06-16.43-.17-24.58,1.89-3.15,1.89-5.31-.67-8.31-2.75-3.23-4.39-7.39-6.52-11.15-2.71-4.76-4.83-10.03-8.32-14.13-2.95-3.47-7.48-5.59-11.39-8.36-.17.31-.06-.16.12-.19,9.15-1.65,15.97-7.12,22.22-13.52,7.29-7.46,15.06-14.15,25.64-16.6.91-.21,2.01-2.02,2.01-3.1,0-1.75-.81-3.51-1.43-5.8,3.24.52,6.17.98,9.04,1.44.24-.86.49-1.24.39-1.46-4.96-10.72-3.65-20.75,2.12-30.98,4.3-7.62,7.2-16.02,11.06-24.85,8.94,8.8,21.01,9.11,31.44,13.5,5.15,2.17,9.85,5.4,14.84,7.99,1.19.62,2.93,1.18,4.04.76,9.66-3.65,19.73-4.57,29.9-5.17,2.6-.15,5.16-.86,8.62-1.47-1.04,1.68-1.74,2.84-2.46,3.98-3.08,4.89-2.96,10.08-1.48,15.42.66,2.38,1.81,3.35,4.35,2.14,10.22-4.87,19.76-3.05,28.74,3.23,8.28,5.79,17.14,10.23,27.1,12.3.43.09.79.52,1.55,1.04-.81.73-1.42,1.41-2.15,1.93-5.97,4.21-8.09,10.28-8.55,17.25-.25,3.81-.48,7.67-1.32,11.38-1.35,5.93-4.74,10.56-10.65,13.31,3.76,8.82,8.8,15.94,17.91,19.94Zm-104.04-6.66v-1.6c-.17.03-.33.05-.5.08.19.48.39.95.58,1.43,1.86,6.96,6.7,9.98,13.85,8.55,6.12-1.22,12.21-2.54,17.83-3.72-.21-7.03-.37-14.44-.69-21.84-.13-3.01-1.59-4.84-4.14-4.63-.31,2.07-.18,3.52-.75,4.59-2.46,4.64-5.11,8.89-9.53,12.39-3.43,2.71-6.21,3.62-10.23,3.3-2.09-.17-4.27.93-6.42,1.45Zm46.66-91.63c-.24-.39-.48-.77-.73-1.16-8.03,1.02-16.14,1.63-24.08,3.16-9.3,1.79-17.64,5.86-24.42,12.75-8.42,8.56-8.37,17.18,1.06,25.34,1.51-3.24,2.89-6.21,4.08-8.76,4.45,4.18,8.9,8.53,13.59,12.63,1.1.96,3.1,1.72,4.44,1.44,13.1-2.82,23.43,2.04,32.39,11.13,1.44,1.46,3.05,2.77,4.58,4.14.45-.14.89-.28,1.34-.42.22-2.19.68-4.38.62-6.56-.25-9.44-4.02-17.7-8.64-25.73-4.99-8.66-9.14-17.59-4.22-27.96ZM44.81,200.52c7.8-6.45,16.76-7.9,26.02-8.42,1.33-.07,2.75-.11,3.94-.6,5.63-2.35,11.28-4.68,16.75-7.36,3.19-1.56,3.74-3.66.62-6.46-3.19-2.88-6.12-6.17-8.6-9.68-1.77-2.5-3.45-5.59-3.67-8.53-.31-4.19-2.24-4.77-5.71-4.87-10.26-.3-20.52-1.04-30.88,2.97.57-5.77,1.17-10.68,1.44-15.6.06-1.18-.69-3.18-1.56-3.51-4.12-1.58-8.42-2.72-12.74-4.04-6.19,8.71-7.17,17.43-1.63,27.03,4.47,7.75,8.29,15.92,11.83,24.15,1.94,4.49,2.71,9.48,4.19,14.92Zm42.3-64.17c1.33-9.59-3.02-17.47-6.38-25.59-.57-1.38-1.83-2.67-3.08-3.55-4.34-3.06-9.11-5.56-13.13-8.98-3.06-2.6-5.62-2.49-8.48-.51-7.49,5.19-11.43,11.83-10.69,21.54.8,10.4.22,20.92.24,31.38,0,1.24,0,2.48,0,2.7,11.06,0,21.49-.08,31.92.02,9.03.09,16.41-3.31,22.81-9.58,3.38-3.31,4.52-6.67,2.23-11.82-4.83,1.37-9.69,2.75-15.44,4.38Zm110.79,48.74c-1.39-5.14-2.97-11.22-4.7-17.25-1.83-6.4-3.57-12.84-5.83-19.09-1.28-3.54-3.37-6.83-5.37-10.07-1.7-2.75-3.73-3.42-7.08-1.6-4.31,2.35-9.07,4.28-13.87,5.26-6.83,1.4-8.7,2.49-9.58,9.48-.45,3.61-.14,7.31-.21,10.97-.03,1.55-.17,3.09-.3,5.33-3.31-1.78-5.85-3.15-8.94-4.81-.57,2.61-.72,4.79-1.52,6.69-1.52,3.61-.32,6.18,2.06,8.96,6.28,7.32,14.46,9.08,23.45,8.52,10.7-.67,21.39-1.6,31.87-2.4ZM71.22,4.27c-.6,1.2-1.63,3.08-2.5,5.02-3.14,6.97-5.99,14.08-9.39,20.92-3.85,7.75-3.58,15.3-.42,23.14,1.29,3.2,3.12,3.87,6.19,3,3.84-1.09,7.69-2.3,11.62-2.87,7.16-1.04,14.37-1.64,21.83-2.45-.83-13.36,8.15-20.61,18.87-27.27-2.08-1.68-3.53-3.43-5.39-4.25-5.77-2.54-11.65-4.85-17.57-7.04-7.42-2.74-14.92-5.28-23.23-8.21Zm-11.74,89.33c-6.23-6.91-8.67-14.98-8.41-23.97.09-3.13-1.94-3.8-4.32-2.77-4.24,1.84-8.67,3.55-12.43,6.17-10,6.97-16.81,17.92-29.69,22.73,8.88,4.85,12.29,12.45,16.14,19.87,2.8,5.4,6.04,10.7,9.89,15.38,3.35,4.07,8.46,5.43,14.61,5.6-.43-6.11-.46-11.75-1.3-17.26-1.23-8.02,1.42-14.44,7.1-19.75,2.27-2.13,5.09-3.67,8.41-6.01Zm55.62,104.7c5.1-4.57,10.47-8.6,14.83-13.54,3.53-4.01,6.53-8.82,8.53-13.77,3.28-8.13,2.23-9.7-5.94-12.91-4.94-1.94-10.23-3.22-14.81-5.8-4.79-2.7-8.9-6.59-13.62-10.19-5.44,6.25-12.12,11.2-20.95,12.72-.84.15-2.14,2.86-1.77,3.85,1.36,3.66,2.63,7.73,5.18,10.49,9.48,10.2,19.45,19.93,28.55,29.15Zm43.38-158.17c.66,1.58.99,2.7,1.55,3.69,4.81,8.42,9.14,16.97,10.3,26.84.17,1.44,2.4,2.79,3.89,3.88,3.46,2.52,7.52,4.4,10.47,7.39,2.98,3.01,5.09,6.95,7.26,10.67,1.81,3.11,3.67,3.39,6.36,1.18,4.72-3.89,6.74-9.18,6.99-14.93.38-9.13.95-18.01,9.13-24.58-4.18-1.53-7.77-2.44-10.96-4.11-6.47-3.39-12.71-7.21-19.08-10.81-8.61-4.87-17.08-4.43-25.92.79Zm18.21,48.56c-7.73,2.69-10.2,9.62-13.46,15.91-1.61,3.1-3.02,6.31-4.77,9.33-1.31,2.27-1.41,4.01.17,6.34,3.69,5.43,3.64,11.22.57,17.01-.5.94-.82,1.98-1.38,3.39,5.2.63,9.41-1,13.24-3.25,7.74-4.55,15.17-9.62,22.92-14.14,4.34-2.53,9.08-4.38,14.4-6.89-7.96-4.34-11.37-11.63-15.22-18.61-1.93-3.5-3.92-6.96-6.05-10.35-3.74-5.95-8.68-10.35-15.71-11.97q-3.12,5.94,5.28,13.21Zm-86.13-13.08c.17-9.09,6.92-12.4,13.62-15.52-1.41-4.81-4.82-6.29-8.53-6.49-4.79-.25-9.68-.17-14.41.53-5.41.8-10.65,2.68-16.05,3.65-4.46.8-9.04.97-12.78,1.34-2.45,21.76,6.06,37.24,26.02,46.38.21-.81.46-1.28.43-1.74-.35-6.36,1.44-11.42,7.74-14.3.92-.42,1.54-2.8,1.34-4.13-.54-3.66-1.6-7.25-2.52-11.21,1.82.52,3.19.92,5.14,1.48Zm64.81,43.7c-1.48,1-2.68,1.87-3.93,2.66-5.39,3.39-8.75,3.01-13.4-1.45-3.5-3.36-4.07-3.2-5.65,1.57-2.38,7.2-8.22,11.46-15.82,11.36-2.48-.03-4.98-.39-7.44-.78-3.35-.54-4.47,1.11-3.63,3.96.69,2.35,1.53,5.08,3.23,6.6,3.79,3.4,7.84,6.77,12.35,9.05,8.87,4.49,18.11,8.23,27.21,12.25.22.1.6-.17.97-.29.13-.44.44-.93.39-1.38-1.06-9.76,1.47-18.18,7.69-26.02,4.4-5.55,3.1-12.26-1.98-17.53Zm-16.63-.9c5.43,5.16,8.89,5.59,13.34,1,3.27-3.38,5.55-7.79,7.92-11.94,3.83-6.7,5.94-14.5,12.87-19.14-5.44-5.21-10.46-10.29-15.77-15.03-5.93-5.3-13.1-7.8-21.03-7.89-1.81-.02-3.63.63-6.33,1.14,5.21,5.41,5.71,11.37,6.23,17.39.11,1.28.83,3.13,1.81,3.59,3.8,1.81,3.67,4.94,3.89,8.4.41,6.42,1.31,12.8,2.03,19.2.14,1.26.42,2.5.7,4.08-1.82-.25-3.19-.44-5.66-.78Zm-48.15,15.3c6.49-2.99,13.82-3.63,21.37-2.19,1.94.37,3.98.43,5.96.32,6.94-.36,11.92-5.09,12.91-12.62-2.23.49-4.25.95-6.28,1.39-8.81,1.93-14.12-.76-17.21-9.2-.99-2.7-2.39-3.65-5.1-3.51-6.28.31-9.87-3.19-11.78-8.77-.9-2.61-1.58-5.29-2.36-7.97-5.35,2.08-7.93,5.22-7.7,10.09.14,2.93,1,5.88,1.93,8.69,2.54,7.67,5.29,15.27,8.26,23.76Zm21.77-79.2c-1.71,4.74-5.77,6.45-9.88,8.43-3.04,1.46-5.97,3.64-8.15,6.18-1.24,1.44-.88,4.26-1.25,6.45,1.87.17,3.8.74,5.58.43,5.02-.87,10.02-1.34,14.6,1.22,5.53,3.09,10.87,6.53,16.2,9.95,2.77,1.77,4.42,1.33,4.7-1.96.57-6.69-.44-12.96-6.08-17.59-5.1-4.19-10.15-8.45-15.73-13.11Zm-2.84,49.83c-5.51-3.68-5.56-8.29-3.87-13.41,1.72-5.22,6.16-6.83,11.24-8.43-3.46-4.86-8.11-5.7-12.9-5.58-5.08.13-10.14.86-15.75,1.38,1.21,6.63,2.11,13.51,3.77,20.2,1.79,7.19,8.93,10.15,17.51,5.84Zm24.38-11.67c-3.49-2.95-6.5-5.54-9.56-8.07-3.29-2.71-5.31-2.33-8.03,1.61.85.49,1.64,1.07,2.52,1.45,5.98,2.61,6.19,2.92,5.8,9.29-.05.83-.34,1.71-.15,2.47.27,1.07.83,2.86,1.36,2.9,1.11.08,2.77-.47,3.35-1.34,1.82-2.71,3.24-5.68,4.69-8.32Zm-27.01,2.67c-.55,1.9,3.37,10.52,5.5,11.62,3.81,1.98,8.63,1.28,11.1-1.68-5.56-3.33-11.11-6.65-16.6-9.94Zm15.77-1.65c.22-.34.44-.68.65-1.01-1.21-1.03-2.33-2.23-3.67-3.05-1.38-.85-3.21-1.05-4.46-2.03-3-2.34-4.98-.26-6.82,1.49-.59.56-.44,2.41,0,3.37.23.5,2.22.85,2.77.42,2.54-1.94,4.88-1.25,7.42-.15,1.26.55,2.72.66,4.09.96Zm-6.91,0c-.36-.28-.72-.56-1.09-.84-.89.89-2.69,2.15-2.51,2.59.56,1.34,1.88,2.36,3.6,4.29v-6.03Zm2.7,6.51c4.16,2.08,3.78-.66,4.08-2.6-1.18.75-2.36,1.5-4.08,2.6Zm.88-1.35c.48-1.33.92-1.95.85-2.52-.06-.48-.65-1.22-1.06-1.26-.43-.05-1.21.53-1.33.97-.1.4.49.97,1.54,2.81Z"/>
  </g>
</svg>