<?xml version="1.0" encoding="UTF-8"?>
<svg id="Layer_2" data-name="Layer 2" xmlns="http://www.w3.org/2000/svg" viewBox="0 0 229.69 224.71">
  <defs>
    <style>
      .cls-1 {
        stroke-width: 0px;
        opacity: 0.05;
      }
    </style>
  </defs>
  <g id="Layer_1-2" data-name="Layer 1">
    <path class="cls-1" d="m63.08,200.76c-7.63,7.73-16.01,7.46-24.64,6.36-2.72-.35-5.53-.05-7.71-.05-.78-7.45-1.54-14.64-2.28-21.83-.71-6.85,1.31-12.83,5.83-17.99,1.08-1.23,2.13-2.49,3.37-3.94-4.23-3.99-9.05-6.24-15.18-7.33,5.93-7.45,3.24-16.03,5.46-24.39-2.39-.24-4.14-.46-5.9-.58-3.9-.26-7.11-1.86-9.26-5.14-2.01-3.06-3.6-6.4-5.75-9.34-2.02-2.77-4.54-5.17-7.02-7.94,8.2-2.52,12.25-9.39,16.4-16.24,3.6-5.94,8.25-7.8,14.89-5.66,5.38,1.73,10.59,3.98,15.88,6,1.53.58,3.06,1.15,4.72,1.77,1.38-2.57-.16-3.58-1.75-4.54-4.14-2.48-8.32-4.91-12.43-7.45-2.26-1.4-4.44-2.95-6.59-4.51-4.78-3.46-6.79-8.06-5.62-13.93.36-1.79.83-3.57,1.1-5.38.73-4.86,1.38-9.74,2.14-15.13,2.6,0,5.75.34,8.8-.1,2.93-.43,5.7-1.9,8.62-2.49,5.75-1.18,10.92.01,15.04,4.52.56.61,1.17,1.16,1.79,1.72.09.08.3.01,1.27.01,2.6-5.63,5.34-11.58,8.26-17.91,6.05,1.7,12.52,3.53,19.54,5.51-.15-2.7-.33-4.79-.37-6.89-.12-7.22,2.44-13.01,9.03-16.57,4.73-2.55,8.27-6.07,9.23-11.29,4.65,2.51,9.03,4.99,13.51,7.27,6.96,3.55,10.22,9.24,10.19,16.95,0,2.95,0,5.9,0,9.42,6.92-1.28,13.54-2.5,20.05-3.7,1.71,5.89,3.49,11.99,5.56,19.13,7.09-7.58,14.37-5.9,21.95-3.39,3.87,1.28,8.01,1.71,12.05,2.53-.64,3.99-1.73,8.44-1.96,12.93-.22,4.44.43,8.92.74,14.05,1.73-.47,3.44-.81,5.06-1.4,8.07-2.94,14.62-.82,20.09,5.65,3.94,4.65,8.13,9.09,12.52,13.96-5.11,3.82-7.01,10.07-9.3,16.12-2.83,7.46-6.28,9.83-14.33,10-2.75.06-5.51,0-8.89.97,2.61,2.62,5.21,5.25,8.07,8.13-2.66,2.49-5.5,5.14-8.9,8.31,2.57,1.57,4.56,2.92,6.68,4.04,8.11,4.28,11.78,10.75,10.76,20.06-.52,4.74-.09,9.58-.09,14.88-.18.06-.89.34-1.63.55-4.11,1.21-8.51,1.84-12.3,3.71-8.7,4.29-15.53,4.59-25.12-3.8-2.75-2.4-5.09-5.27-7.72-7.82-1.22-1.18-2.69-2.1-4.05-3.14-.29.26-.57.52-.86.78.37.74.6,1.61,1.14,2.21,1.33,1.49,2.77,2.88,4.21,4.27,4.19,4.06,5.58,8.74,4.05,14.55-1.55,5.9-2.51,11.95-3.83,18.49.49-.27.12.08-.04,0-4.7-2.32-9.57-2.52-14.56-1.2-6.82,1.81-12.12-.18-15.88-6.2-.25-.4-.71-.67-1.5-1.4-2.13,2.84-4.39,5.46-6.2,8.37-1.73,2.8-2.99,5.89-4.74,9.44-5.25-3.87-10.29-7.59-15.96-11.77-.68,1.88-1.3,3.31-1.71,4.79-2.08,7.57-6.57,12.48-14.57,14-3.23.62-6.31,1.99-9.3,2.97-4.32-3.38-8.63-6.73-12.91-10.12-4.06-3.21-7.04-7.07-7.13-13.84Zm162.99-108.22c-3.7-4.26-7.7-9.11-11.99-13.69-3.8-4.06-8.52-5.58-14.07-4.01-5.24,1.48-10.36,2.79-14.89,6.38-3.82,3.03-8.71,4.72-13.16,6.95-1.29.65-2.67,1.1-4.95,2.03,3.71,4.31,7,8.12,10.47,12.15-.83,2.54-4.33,4.44-3.91,8.05,2.91,0,5.6-.35,8.15.09,3.04.52,6.8.85,8.79,2.77,4.97,4.8,10.78,4.48,16.73,4.43,5.45-.04,8.98-2.81,11.08-7.76,2.46-5.76,5.08-11.45,7.74-17.4Zm-123.53-17.43c3.92.28,6.85.5,9.86.72.54-1.63.99-2.87,1.37-4.14,2.24-7.49,4.42-15.01,6.72-22.48,1.6-5.18,4.08-9.8,8.53-13.2.97-.74,2.04-2.04,2.11-3.15.29-4.44.63-8.96.14-13.36-.45-4.12-3.05-7.42-6.7-9.47-4.32-2.42-8.82-4.5-13.43-6.82-2.28,4.82-6.22,7.48-10.36,10.09-7.33,4.62-10.31,17.25-5.13,23.95,4.3,5.56,5.4,11.55,5.6,18.17.2,6.44.82,12.86,1.28,19.69Zm-23.64,36.62c-2.29-1.14-3.37-1.82-4.54-2.23-3.92-1.37-7.85-2.72-11.83-3.91-3.82-1.15-6.99-2.93-8.73-6.79-.43-.96-1.39-1.99-2.35-2.37-7.26-2.85-14.52-5.72-21.9-8.23-4.68-1.59-8.73.17-11.13,4.34-3.85,6.67-8.29,12.75-14.24,16.84,2.87,4.47,5.54,8.63,8.21,12.78.63.98,1.22,1.99,1.94,2.9,4.43,5.58,12.07,5.7,17.19.78,2.32-2.23,5.3-4.12,8.32-5.19,3.7-1.3,7.77-1.59,11.68-2.29,7.35-1.31,14.71-2.53,22.04-3.97,1.54-.3,2.91-1.42,5.34-2.66Zm-52.04,42.73c4.36,2.51,9.03,5.3,13.79,7.91,6.04,3.31,10.52,2.95,15.58-1.43,1.05-.91,1.94-2.76,1.85-4.12-.38-6.22,2.29-10.98,6.72-14.87,3.11-2.73,6.58-5.06,9.87-7.59,1.38-1.07,2.72-2.19,4.48-3.61-2.15-1.43-3.72-2.47-4.94-3.28,1.12-3.95,2.13-7.49,3.39-11.93-5.17,1.13-9.13,2.18-13.17,2.82-7.21,1.15-14.54,1.67-21.67,3.15-8.85,1.84-13.05,7.01-14.01,15.85-.62,5.72-1.27,11.44-1.9,17.09Zm56.7,68.01c2.65-.74,5.49-1.65,8.39-2.32,7.86-1.83,12.17-6.82,13.84-14.6.64-2.96.46-5.25-1.34-7.89-3.65-5.37-5.08-11.4-4.22-18.02.72-5.59.96-11.26,1.22-16.9.09-2.04-.39-4.11-.61-6.16-.39-.12-.79-.24-1.18-.37-.95,1.21-1.88,2.43-2.87,3.61-3.28,3.94-5.98,8.73-10.04,11.57-3.99,2.79-6.77,6.1-9.34,9.96-2.76,4.15-5.71,8.18-8.65,12.2-5.58,7.63-4.74,14.03,2.75,19.83,3.92,3.04,7.92,5.99,12.04,9.09ZM191.25,50.32c-5.83-1.65-10.73-3.21-15.72-4.37-2.38-.56-4.97-.74-7.39-.45-4.34.53-8.01,4.12-7.6,7.8.78,6.93-2.68,11.27-7.77,15.07-7.2,5.37-14.27,10.9-21.37,16.4-1,.78-1.86,1.74-2.53,2.37.73,2.85,1.33,5.2,2.06,8.02,1.53-.9,2.93-1.71,4.32-2.53,4.29-2.53,8.48-5.28,12.9-7.56,5.27-2.71,10.6-2.79,15.41,1.19,1.75,1.45,3.55,1.88,5.51.92,5.5-2.69,11.06-5.28,16.37-8.31,4.02-2.29,5.4-6.33,4.71-10.77-.93-5.98-1.45-11.87,1.09-17.79Zm-68.27,22.38c2.21,4.01.14,9.31,4.59,12.75,9.25-7.19,18.48-14.27,27.59-21.5,2.77-2.2,4.33-5.5,3.52-8.9-1.82-7.68-4.18-15.23-6.3-22.76-4.28.67-7.71,1.44-11.17,1.71-10.56.83-16.6,6.71-19.37,16.6-2.02,7.21-4.24,14.38-6.31,21.58-.29,1.01-.21,2.14-.37,3.99,2.99-1.33,5.33-2.36,7.81-3.46ZM32.56,204.94c2.98.26,6.3.38,9.56.87,8.68,1.29,15.84-1.27,21.15-8.3,4.81-6.37,9.43-12.89,14.08-19.38.64-.89.97-2,1.93-4.05-5.65.28-10.49.52-15.5.77-1.36-4.35-2.72-8.69-4.09-13.05-1.22.36-1.79.38-2.16.66-4.86,3.67-9.99,5.04-15.92,2.59-.96-.4-2.9.41-3.83,1.27-5.45,4.99-8.43,11.08-7.55,18.67.76,6.56,1.53,13.11,2.34,19.96Zm179.68-31.47c0-4.62-.16-9.59.04-14.54.24-5.79-1.71-10.47-6.44-13.81-2.57-1.81-5.37-3.29-8.06-4.94-1.64-1-3.16-.97-4.45.56-3.86,4.56-9.02,5.2-14.52,4.95-2.39-.11-4.79-.02-7.29-.02-.42,6.74-.8,12.66-1.16,18.5-1.28.3-2.32.54-4.5,1.05,4.88,4.6,8.8,8.89,13.31,12.41,5.56,4.34,11.77,4.72,18.31,1.62,4.47-2.12,9.22-3.64,14.76-5.79ZM73.53,31.39c-1.23,2.81-2.29,5.4-3.48,7.92-1.27,2.71-2.86,5.28-3.97,8.06-2.84,7.09,1.54,17.53,8.35,20.79,2.04.98,4.02,2.41,5.55,4.07,4.04,4.42,7.84,9.06,11.69,13.65,2.41,2.87,4.73,5.82,7.64,9.41,0-4.03-.03-6.98.01-9.93.03-1.99-.38-4.23.39-5.91,1.42-3.11.97-6.13.74-9.26-.4-5.48-.66-10.96-1.05-16.44-.18-2.48-.36-4.99-.85-7.42-1.01-4.93-3.98-8.57-8.64-10.24-5.28-1.89-10.79-3.13-16.37-4.71Zm49.83,180.11c3.13-4.64,5.73-9.05,8.89-13.02,3.67-4.59,4.66-9.49,2.91-14.93-2.04-6.31-4.24-12.58-6.53-18.8-1.01-2.72-2.44-5.29-4.23-9.11-1.57,3.46-2.59,5.71-3.3,7.28-5.93-1.73-11.42-3.33-17.63-5.14-.49,10.26-.97,19.66-1.33,29.05-.05,1.27.52,2.59.89,3.86,3.1,10.62,12.75,14.62,20.32,20.8Zm45.26-49.64c.28-3.62.55-7.25.83-10.89.35-4.43-.94-8.22-4.38-11.16-5.05-4.33-10.36-8.39-15.12-13.02-5.98-5.82-13.32-7.09-21.08-7.35-1.5-.05-3.67.3-4.36,1.28-.61.87.14,3.01.77,4.37,2.92,6.26,7.75,11.76,7.33,19.3-.03.59.41,1.27.78,1.81,4.15,6.03,8.23,12.1,12.52,18.02,2.34,3.22,5.51,3.86,9.31,2.33,4.15-1.67,8.45-2.98,13.39-4.7Zm-2.38,39.73c1.01-4.52,1.89-9.93,3.49-15.12,1.47-4.78.11-8.47-3-11.87-1.46-1.59-3.12-3-4.55-4.62-2.01-2.28-4.15-2.91-7.05-1.56-4.02,1.88-7.48.59-10.26-2.65-1.73-2.02-3.38-4.11-4.92-6.28-2.85-4.03-5.6-8.14-8.4-12.23-5.99,4.82-6.22,5.77-3.63,11.74,2.05,4.73,4.35,9.39,5.86,14.3,1.74,5.67,3.71,11.56,3.84,17.39.19,8.44,4.85,13.45,13.28,12.4,4.88-.61,9.8-.96,15.35-1.49Zm-38.29-84.65c10.49,1.98,20.09,3.93,29.74,5.56,4.5.76,7.76-1.78,9.8-5.5,2.61-4.77,4.82-9.76,7.07-14.37-2.86-3.75-5.45-7.2-8.1-10.61-6.33-8.13-10.76-9.11-19.74-4.17-6.55,3.6-13.04,7.32-19.46,11.15-1.3.78-2.15,2.33-3.37,3.7,3.06,2.93,5.75,5.5,8.42,8.06-1.54,2.18-2.76,3.89-4.38,6.17Zm-79.71-40.2c9.87,2.27,14.79-4.88,21.65-8.97-1.11-1.77-2.19-3.22-2.98-4.82-1.38-2.81-3.09-5.59-3.77-8.59-2-8.89-7.65-13.28-16.35-11.69-5.46,1-10.82,2.57-16.16,3.87-.98,5.05-1.65,10.35-3.09,15.44-1.93,6.79.19,11.77,5.8,15.45,5.41,3.56,10.97,6.88,16.5,10.25.61.37,1.47.35,2.25.52q.43-4.95-3.86-11.45Zm48.05,57.44c-6.35,1.32-6.33,1.28-12.97-1.41-.94-.38-2.51-.56-3.18-.04-5.77,4.47-11.63,8.88-16.99,13.82-2.85,2.62-4.25,6.54-3.12,10.56,1.47,5.25,3.35,10.39,5.09,15.69,3.24-.15,6.26-.72,9.15-.33,8,1.09,13.46-2.38,17.56-8.83.8-1.26,1.75-2.43,2.64-3.64,2.21-2.99,3.86-5.76,2.29-9.99-1.1-2.95-.39-6.59-.46-9.92-.04-1.93,0-3.86,0-5.93Zm-42.66-54c.3,4.19.71,8.62.9,13.06.22,5.24,2.47,8.82,7.66,10.37,3.82,1.14,7.62,2.37,11.38,3.69,2.92,1.03,5.59,1.86,8.2-.91.9-.96,2.69-1.2,4.13-1.52,5.72-1.27,5.72-1.24,5.53-7.03-.02-.62.18-1.25.3-2.02h4.58c-.21-.74-.21-1.3-.48-1.64-5.81-7.04-11.47-14.23-17.55-21.03-4.26-4.77-6.31-4.59-11.58-1.08-4.23,2.82-8.64,5.36-13.07,8.09Zm95.91,42.82c-.12.23-.25.45-.37.68,1.04.93,2.07,1.89,3.14,2.8,4.65,4,10.06,7.42,13.77,12.16,3.8,4.85,8.18,5.51,13.44,5.25,1.33-.07,2.74.19,3.97-.18,2.33-.69,5.05-1.18,6.72-2.72,4.22-3.89,7.94-8.31,11.74-12.38-2.81-3.31-5.61-6.17-7.9-9.39-4.12-5.81-9.6-7.65-16.47-6.96-3.76.37-6.35,1.39-8.25,5.07-3.24,6.31-7.52,7.93-14.5,6.57-1.75-.34-3.52-.6-5.28-.9Zm-46.07,2.28q-5.77,6.07-5.58,14.47c.05,2.33.12,4.65.24,6.98.31,6.19,2.07,8.5,8.2,10.19,4.45,1.23,8.98,2.18,13.22,3.19,3-4.4,6.1-8.7,8.89-13.18,1.1-1.76,2.61-4.34,2.05-5.84-2.01-5.4-4.48-10.71-7.52-15.6-1-1.61-4.3-1.71-6.45-2.71-2.53-1.17-4.69-.76-7.07.55-1.8.99-3.98,1.32-5.98,1.95Zm17.16-49.39c-3.81,2.61-8.59,1.91-13.39,1.37-4.78-.53-6.43.99-6.33,5.81.05,2.66.27,5.33.54,7.98.1.96.24,2.3.87,2.75,3.37,2.39,6.89,4.56,10.39,6.75.36.23.97.1,1.46.07,2.81-.14,5.63-.29,9.23-.48.89-1.12,2.71-2.76,3.66-4.8.75-1.59,1.11-3.97.47-5.51-1.93-4.64-4.42-9.05-6.9-13.95Zm-31.34,30.82c-6.49-.01-8.63,1.5-9.8,6.74-.97,4.33-1.81,8.7-2.75,13.27,2.53,1.49,5.23,3.04,7.89,4.66,5.35,3.27,9.12,2.68,12.9-2.32,1.55-2.06,2.72-4.42,3.62-5.91-2.58-3.55-4.64-6.4-6.72-9.23-.29-.39-.67-.91-1.08-.99-3.35-.63-3.76-3.29-4.06-6.23Zm26.55,13.31c2.81,2.72,4.81,2.03,6.54,0,2.46-2.87,4.82-5.83,7.62-9.24-3.46-2.96-6.64-5.79-9.95-8.45-2.07-1.67-3.94-.81-5.93,1.01,1,1.44,2.08,2.69,2.8,4.12.56,1.12,1.1,2.54.92,3.7-.49,3.12-1.37,6.18-2,8.86Zm-17.6-8.78c-2.44,2.24-1.75,4.12-.24,5.96,4,4.85,8.63,5.73,14.15,2.87,1.84-.96,3.02-2.11,2.14-4.28-.83-2.06-2.37-2.64-4.4-1.68-4.47,2.11-8.31,1.33-11.65-2.87Zm-4.16-12.56c-.94,3.23-1.81,6.08-2.59,8.96-.47,1.74.26,3.19,2.01,3.3,1.05.07,3.02-.82,3.13-1.51.82-5.09,4.45-7.5,8.67-9.44-.26-2.59-1.12-3.97-3.83-3.21-2.39.67-4.81,1.24-7.39,1.9Zm19.23,13.53c2.86-.53,3.41-1.94,2-3.89-1.92-2.65-4.07-5.13-6-7.54-8.5,2.92-9.43,3.69-9.13,7.29,9.38-5.07,10.49-4.75,13.12,4.14Zm-5.47,1.48c-1.5-2.53-2.44-4.11-3.72-6.27-1.22,1.85-2.04,3.09-3.35,5.07,2.65.45,4.4.74,7.07,1.19Zm.98-7.15c-.63.29-1.26.58-1.9.86.76,1.27,1.52,2.55,2.28,3.82.48-.25.95-.5,1.43-.75-.61-1.31-1.21-2.62-1.82-3.93Z"/>
  </g>
</svg>