<?xml version="1.0" encoding="UTF-8"?>
<svg id="Layer_2" data-name="Layer 2" xmlns="http://www.w3.org/2000/svg" viewBox="0 0 231.93 178.81">
  <defs>
    <style>
      .cls-1 {
        stroke-width: 0px;
        opacity: 0.05;
      }
    </style>
  </defs>
  <g id="Layer_1-2" data-name="Layer 1">
    <path class="cls-1" d="m11.88,72.32c3.78,5.97,7.57,11.93,11.35,17.9.43-.11.87-.22,1.3-.34-2.83-15.94-4.05-31.9-1.12-48.18,2.04,5.78,4.07,11.55,6.11,17.33.48-.07.96-.13,1.44-.2v-31.25l1.27-.26c4.45,9.16,8.91,18.33,13.36,27.49.66-.16,1.32-.32,1.99-.48v-20.52c.52-.11,1.04-.23,1.57-.34,3.25,6.04,6.5,12.07,9.75,18.11l.88-.41c-.98-7.36-2.82-14.73-2.69-22.06.13-7.5,2.19-14.97,3.41-22.46.62,0,1.23,0,1.85.01,1.1,6.16,2.21,12.33,3.58,20.04,1.97-3.41,3.18-5.51,4.39-7.6.57-.02,1.14-.03,1.71-.05-3.29,13.76-3.03,26.73,7.45,38.23-1.27-19.3,1.76-36.99,10.82-53.62,1.06,10.12,2.32,20.05,6.61,29.19.63.01,1.26.03,1.89.04,2.04-10.42,4.07-20.85,6.11-31.27.42-.11.84-.22,1.26-.33,2.53,8.96,5.05,17.91,7.81,27.69,6.43-10.84,11.66-22,22.74-28.96-6.35,12.03-6.9,24.73-5.79,37.64.52.28,1.04.57,1.56.85,2.52-4.58,5.5-8.97,7.44-13.79,1.95-4.84,2.85-10.11,5.5-15.37.61,4.8,1.46,9.58,1.76,14.4.31,4.94.07,9.91.07,14.87l1.74.56c2.74-6.13,5.48-12.26,8.21-18.39.33,0,.65.02.98.02v39.28c.69.15,1.39.31,2.08.46,4.47-10.94,8.94-21.89,13.4-32.83l1.07-.21c.49,4.86.98,9.72,1.47,14.58.42.09.83.18,1.25.27,4.45-9.35,5.99-19.64,8.62-29.78,6.22,17.3,4.83,35.38,5.74,53.19.52.12,1.04.25,1.55.37,2.63-9.12,5.27-18.24,7.9-27.35,4.19,13.97,6.33,28,4.84,42.47.6.17,1.2.34,1.8.52,4.89-9.59,9.78-19.18,14.68-28.78.41.07.82.14,1.22.21-.24,12.42-2.49,24.74-6.04,36.54-3.6,11.96-9.21,23.32-14.57,36.48,9.85-5.64,18.9-10.82,27.94-15.99.27.18.53.36.8.54-1.13,1.86-2.06,3.88-3.42,5.56-16.78,20.64-37.21,36.59-61.38,47.75-4.37,2.02-8.6,4.37-12.79,6.76-11.27,6.42-23.11,8.41-36.09,6.66-7.43-1.01-15.23-.12-22.78.7-25.77,2.8-48.71-3.78-69.51-19.21-12.7-9.42-19.22-22.87-25.96-36.53,6.83,7.53,14.71,13.41,24.02,17.54-10.26-15.36-18.21-31.5-21.48-51.12,5.99,7.24,11.07,13.4,16.16,19.55.48-.28.97-.56,1.45-.84-4.63-11.27-8.66-22.68-9.73-34.8.49-.16.97-.31,1.46-.47Zm214.59,42.1c-10.94,7.82-22.91,13.38-35.97,16.7-1.97.5-4.03,2.16-5.24,3.86-5.76,8.09-11.24,16.38-16.8,24.62-.38.56-.61,1.23-1.11,2.24,1.12-.2,1.64-.18,2.05-.39,21.53-10.48,39.98-24.94,55.51-43.14.86-1.01,1.01-2.62,1.51-3.9.01,0,.03,0,.04,0Zm-163.74-1.64l-.1.1c-1.48-12.18-2.87-24.37-4.55-36.52-.27-1.98-1.74-3.86-2.87-5.65-5.38-8.57-10.96-17.01-16.2-25.66-2.19-3.61-3.72-7.62-5.75-11.86-5.56,14.68,1.82,45.2,13.08,54.89.48-1.89.92-3.65,1.37-5.41,1.66,2.48,2.09,5.14,3.24,7.45,3.79,7.62,7.84,15.11,11.78,22.67Zm57.75,63.29c1.59.24,3.64.75,5.72.82,12.33.37,23.23-3.74,32.95-11.05,13.17-9.92,21.38-23.49,27.82-38.34,4.68-10.78,8.42-21.75,7.38-33.76-.17-1.96-.58-3.89-.88-5.84-1.31.83-1.76,1.52-1.97,2.28-3.93,14.35-11.96,26.25-22.05,36.9-11.81,12.45-26.1,21.59-40.63,30.43-1.64,1-3.14,2.86-3.85,4.66-1.68,4.23-2.84,8.67-4.49,13.91Zm-16.72-2.79c-5.97-7.2-9.48-13.97-8.9-22.35.07-1.01-1.91-2.49-3.24-3.22-9.54-5.25-17.59-12.17-23.11-21.57-6.15-10.45-11.8-21.2-17.68-31.81-.5-.89-1.05-1.75-1.58-2.63-.44,6.38-.12,12.51.45,18.61,1.49,15.84,5.33,30.87,15.81,43.44,9.61,11.52,21.69,18.31,38.25,19.53Zm-9.47-25.46c2.78-4.01,1.99-6.37,0-9.43-4.03-6.24-8.45-12.62-10.6-19.59-3.67-11.86-6.49-23.94-11.88-35.25-1.75-3.67-2.68-8.01-2.85-12.08-.48-11.93-.41-23.89-.51-35.84-.02-1.98.23-3.95.35-5.93-1.63,1.06-2.27,2.19-2.63,3.41-6.59,22.22-8.08,44.72-4.29,67.63,2.4,14.5,6.86,27.84,18.76,37.43,4.31,3.47,9.04,6.42,13.64,9.66Zm34.64-52.22l1.84-.25c-.93-13.4-1.86-26.8-2.86-41.05,2.17,2.61,3.81,4.59,5.45,6.56-4.26-18.59-7.29-36.79-.86-55.37-1.24.48-2.12.97-2.7,1.7-16.22,20.55-24.57,44.02-25.44,70.09-.09,2.8,1.97,5.67,3.03,8.51l1.3-.44c2.59-6.84,5.18-13.68,8.25-21.78,7.19,10.73,9.31,21.5,11.99,32.05Zm-13.36,42.84c7.91-27.79-5.98-47.6-19.17-67.82-10.39,20.44-8.61,51.46,3.55,61,1.93-3.87,3.84-7.7,5.8-11.62,3.33,6.24,6.31,11.85,9.82,18.44Zm-14.31,36.44c-1.08-.26-2.14-.62-3.23-.75-8.46-1.04-16.25-4.09-22.83-9.34-4.59-3.66-9.32-5.64-15.1-6.59-14.59-2.39-27.01-10.07-39.39-17.6-4.7-2.86-9.19-6.04-14.29-9.41,11.5,29.58,54.67,53.43,94.85,43.69Zm56.6-78.32c-4.14,5.21-7.31,10.64-11.81,14.55-9.17,7.97-15.46,17.53-20.4,28.52-2.78,6.19-1.83,11.33.64,17.87,9.32-7.89,22.37-10.04,27.65-22.29,5.35-12.41,6.18-25.22,3.91-38.65Zm16.5-61.96c-.47-.24-.95-.49-1.42-.73-.6,1.45-1.25,2.88-1.79,4.35-5.42,14.75-11.65,29.32-21.59,41.46-7.59,9.26-1.93,17.96-2.72,26.87.73.23,1.45.46,2.18.69,2.77-5.61,5.54-11.22,8.8-17.8,1.14,5.45,2.17,10.36,3.2,15.26.64.02,1.29.04,1.93.06,11.28-22.09,12.02-46.01,11.41-70.16Zm-72.98,40.81c.33-.1.67-.2,1-.3.93-5.99,2.12-11.96,2.66-17.98.23-2.57-.25-5.65-1.53-7.84-6.65-11.3-11.88-23.06-13.46-36.22-.12-1.02-.52-2.01-.89-3.38-7.97,11.86-11.52,46.72-5.52,52.82.89-1.41,1.76-2.79,2.63-4.17,1.44,7.54.4,15.18,5.3,21.94,1.35-4.92,2.69-9.84,4.31-15.75,2.19,4.33,3.84,7.61,5.5,10.89Zm3.7,49.04c-5.04,11.22-10.35,21.99-7.87,34.42,1.35,6.76,5.33,12.16,11.81,15.23,4.74,2.25,9.27,1.26,11.59-3.35,3.88-7.73,5.18-15.94.17-23.73-4.74-7.37-10-14.42-15.7-22.56ZM13.92,78.57c-.29.1-.57.2-.86.3,0,.48-.09.99.01,1.45,6.31,29.84,21.2,54.67,44.09,74.69,1.92,1.68,5.09,1.95,7.67,2.87.27-.45.54-.9.81-1.35-7.59-9.15-12.46-19.56-15.22-31-.24-1.01-1.4-1.8-2.14-2.68-8.5-10.18-17.15-20.24-25.43-30.6-3.38-4.23-5.97-9.09-8.92-13.67Zm10.42-28.62c-.45.06-.9.12-1.35.18-.83,16.07-.29,32.34,5.7,47.3,3.76,9.4,11.82,16.83,20.61,24.04-.68-8.25-.95-15.39-1.97-22.43-.52-3.61-1.98-7.22-3.69-10.48-3.63-6.91-7.97-13.45-11.5-20.4-2.98-5.87-5.22-12.12-7.79-18.2Zm159.62,6.64c-.95,1.44-1.33,1.8-1.43,2.23-.33,1.29-.54,2.6-.81,3.9-3.32,16.12-8.17,31.56-19.44,44.18-.64.72-1.34,1.61-1.49,2.51-1.47,8.93-2.82,17.87-4.2,26.78-.09.02.48.09.78-.16,9.05-7.61,17.59-15.3,21.61-27.27,5.64-16.8,5.72-33.79,4.99-52.17Zm4.44,72.97c6.94-.41,11.61-2.93,14.86-8.94,8.07-14.91,14.46-30.32,16.62-47.27.51-4.01,1.26-7.99,1.9-11.98-1.76.7-2.4,1.74-3.03,2.79-5.54,9.27-10.64,18.84-16.79,27.69-3.57,5.15-6.26,10.03-7.3,16.37-1.16,7.12-4.02,13.96-6.26,21.33Zm-58.15-68.37c3.88,28.33,1.45,55.88-9.1,82.7,1.56-1.15,2.38-2.48,2.96-3.9,4.33-10.57,9.49-20.55,18.77-27.81,1.03-.81,1.88-2.47,1.96-3.78,1.08-17.46-4.6-32.92-14.59-47.22Zm-12.19,80.22c13.17-13.99,12.06-61.03-1.43-73.56-2.23,6.53-4.53,12.72-6.38,19.06-.43,1.48.26,3.64,1.13,5.08,6.68,11.15,8.68,23.23,7.56,36-.36,4.17-.55,8.35-.87,13.43Zm38.88-112.99c-1.27,1.02-1.76,1.24-1.98,1.61-6.15,10.85-12.29,21.7-18.36,32.6-.52.93-1.08,2.36-.73,3.18,2.61,6.18,5.44,12.27,8.21,18.41,17.01-15.75,13.35-35.61,12.86-55.79Zm-104.06,125.44c-.81-.93-1.57-1.91-2.44-2.78-9.86-9.8-17.73-21.02-25.14-32.8-5-7.95-12.36-14.41-19.3-22.26,1.76,13.06,10.6,30.97,21.7,44.98,6.37,8.05,15.87,10.08,25.18,12.86Zm140.05-74.23c.49.11.98.21,1.47.32.58,5.13,1.16,10.27,1.78,15.72,9.62-7.44,12.36-36.23,5.19-50.01-7.16,20.67-14.28,41.24-21.41,61.81.61.23,1.22.46,1.82.69,6.22-8.41,8.16-18.7,11.14-28.53Zm-6.07-60.53c-9.31,22.05-12.48,45.03-14.78,68.19.57.14,1.14.28,1.71.42,3.34-13.74,6.68-27.49,10.01-41.23.64.06,1.29.11,1.93.17v34.75c5.53-7.03,5.83-45.11,1.12-62.29Zm-101.77,47.53c-9.1,23.15-3.8,58.27,12.54,71.48.17-2.18.2-4.47-.73-6.25-7.47-14.23-12.07-28.88-7.62-45.12.29-1.05.17-2.31-.08-3.4-1.28-5.48-2.68-10.94-4.11-16.71Zm-16-22.22c-.92,18.04.5,34.45,9.14,50.26,1.59-9.67,3.08-18.47,4.42-27.3.15-1.01-.38-2.29-.96-3.21-3.86-6.17-7.82-12.29-12.6-19.74Zm76.2-27.75c-3.57,7.18-6.4,13.66-9.9,19.75-3.87,6.74-3.7,16.1,1.04,22.55,12.53-11.92,9.56-26.9,8.86-42.3Zm-39.47,32.95c8.83-14.22,6.07-27.88.01-42.81-.63,2.53-1.02,3.9-1.31,5.28-1.34,6.33-2.01,12.91-4.15,18.95-2.82,7.93,1.94,12.69,5.45,18.58Zm-56.21-10.46c-1.19,11.95-2.52,23.03,7.93,31.21,3.6-9.5,1.13-19.58-7.93-31.21Zm11.86-24.89c-4.19,7.34-4.2,24.67-.16,29.78,4.99-9.87,3.88-19.61.16-29.78Z"/>
  </g>
</svg>