<?xml version="1.0" encoding="UTF-8"?>
<svg id="Layer_2" data-name="Layer 2" xmlns="http://www.w3.org/2000/svg" viewBox="0 0 429.84 116.8">
  <defs>
    <style>
      .cls-1 {
        fill: #98b95b;
      }

      .cls-1, .cls-2 {
        stroke-width: 0px;
      }

      .cls-2 {
        fill: #3d5b3d;
      }
    </style>
  </defs>
  <g id="Layer_1-2" data-name="Layer 1">
    <g>
      <g>
        <path class="cls-1" d="m24.04,84.91c2.88,0,5.77,0,8.65,0,.15,0,.31-.09.46-.13-.14-.03-.29-.07-.43-.09-4.11-.41-8.22-.82-12.33-1.23-.19-.02-.38-.02-.57-.06-.18-.04-.35-.12-.53-.18.15-.14.27-.34.44-.41,2.54-1.08,5.06-2.21,7.64-3.19.83-.31.91-.51.41-1.18-.56-.76-1.11-1.55-1.52-2.4-.43-.89-.86-.76-1.57-.33-2.22,1.34-4.52,2.48-7.11,2.91-3.21.53-6.48-1.45-7.02-4.32-.13-.69-.11-1.45.04-2.14.54-2.46,2.39-3.5,4.78-2.73,2.09.68,4.17,1.4,6.25,2.09.43.14.87.27,1.31.38.21.05.43.07.65.1-.06-.23-.08-.49-.19-.7-1.63-3.17-3.3-6.32-4.89-9.5-.36-.71-.65-.7-1.29-.38-2.27,1.14-4.52,2.32-6.88,3.24-1.26.49-2.75.74-4.09.63-3.63-.29-4.94-4.59-3.5-7.34.57-1.08,1.58-1.61,2.74-1.5,1.34.12,2.68.42,4,.73,2.17.51,4.32,1.11,6.49,1.64.31.08.67,0,1-.01-.08-.28-.15-.58-.26-.85-1.19-2.99-2.41-5.98-3.57-8.98-.26-.67-.42-.8-1.06-.34-1.87,1.34-3.91,2.39-6.23,2.59-1.17.1-2.43-.04-3.56-.37-1.6-.47-2.48-2.1-2.27-3.65.28-2.06,1.62-3.81,3.24-3.9.91-.05,1.86.25,2.75.52,1.7.52,3.38,1.11,5.06,1.7.79.27.88-.02.64-.68-.86-2.34-1.7-4.69-2.59-7.02-1.19-3.1-2.14-6.24-1.87-9.63.14-1.75.71-3.34,1.98-4.6,1.26-1.26,2.63-1.23,3.89.03,1.79,1.8,2.34,4.3,1.2,6.57-1.46,2.9-2.5,5.89-2.24,9.16.12,1.48.65,2.94,1.1,4.38.24.75.5.09.6-.13.65-1.45,1.21-2.94,1.9-4.37.54-1.11,1.08-2.27,1.86-3.21,1.16-1.39,2.84-1.79,3.95-1.22,1.35.69,2.31,2.74,2.07,4.38-.23,1.57-1.02,2.85-2.1,3.95-1.75,1.79-3.76,3.19-6.2,3.88-.68.19-.88.44-.6,1.1,1.19,2.87,2.36,5.75,3.55,8.62.09.22.3.38.46.57.16-.2.36-.38.48-.6,1.07-2.13,2.11-4.29,3.2-6.41,1.12-2.17,3.62-3.24,5.95-2.59,1.75.49,2.52,1.72,2.29,3.51-.29,2.24-1.52,3.94-3.29,5.11-2.01,1.33-4.19,2.4-6.37,3.46-.81.39-1.13.62-.63,1.52,1.72,3.12,3.38,6.28,5.07,9.41.14.25.37.45.55.68.15-.28.36-.55.45-.85.75-2.42,1.49-4.85,2.22-7.28.6-2.01,1.72-3,3.27-2.89,1.91.14,3.65,1.76,3.85,3.6.25,2.28-.25,4.4-2.02,5.9-1.66,1.41-3.51,2.63-5.37,3.77-.8.49-.8.79-.33,1.43.43.58.78,1.22,1.2,1.8.55.76,1,1.92,1.73,2.14,1.63.49,3.44,1.14,5.12.39,2.84-1.28,5.27-.52,7.87.8,2.24,1.13,4.75,1.75,7.15,2.55,1.11.37,2.33.51,3.36,1.03,2.01,1.02,4.11,1.19,6.28,1.08,2.83-.14,4.26.04,4.37,4.33.06,2.3-1.14,3.83-2.84,5.15-.43.34-.86.86-.99,1.38-1.56,6.17-3.08,12.35-4.58,18.53-.17.7-.42,1.06-1.21,1.19-7.63,1.31-15.3,1.65-23,1.1-3.51-.25-7-.78-10.5-1.14-.65-.07-.89-.35-1.04-.95-1.5-6.18-3.01-12.37-4.57-18.53-.14-.55-.55-1.17-1.02-1.47-2.95-1.93-3.39-4.94-2.4-8.03.39-1.2,1.43-1.48,2.56-1.49,1.86-.01,3.72,0,5.58,0,.99,0,1.97,0,2.96,0h0Z"/>
        <path class="cls-1" d="m35.83,41.01c.03-7.77,1.53-15.29,3.61-22.73.07-.25.19-.49.29-.73.11.26.27.52.33.79,1.42,6.79,4.27,12.84,9.1,17.9,1.07,1.12,2.04,2.34,2.99,3.58,1.3,1.71,1.9,3.62,1.34,5.77-.41,1.57-.82,3.15-1.3,4.7-.09.3-.53.68-.83.69-5.55.21-8.93,3.25-10.83,8.24-.11.29-.28.56-.42.84-.17-.24-.37-.47-.5-.74-2.01-3.86-2.95-8.02-3.4-12.3-.21-2-.25-4.01-.37-6.01Z"/>
        <path class="cls-1" d="m38.65,72.28c1.01-4.47,2.18-8.89,4.1-13.06.34-.74.87-1.43,1.42-2.04,3.28-3.65,7.4-4.28,11.94-3.19,1.32.32,2.62.77,3.86,1.32,4.1,1.82,8.24,2.1,12.47.5.2-.08.44-.07.66-.1l-.02-.02c-1.68,2.04-3.22,4.22-5.07,6.1-2.76,2.81-6.3,3.84-10.21,4.01-2.9.13-5.82.44-8.66,1.01-3.98.8-7.4,2.82-10.41,5.54l-.07-.07Z"/>
        <path class="cls-1" d="m55.47,46.51c.11-1.69.4-3.38.29-5.05-.12-1.81-1.19-3.24-2.63-4.35-.48-.37-.95-.76-1.37-1.2-1.57-1.62-1.58-3.39.18-4.82,1.22-.99,2.62-1.82,4.04-2.5,3.83-1.84,7.8-3.41,11.19-6.03,1.24-.96,2.26-2.22,3.37-3.34.13-.13.25-.27.37-.4.02.21.09.42.07.62-.42,3.29-1.34,6.45-2.67,9.49-2.91,6.67-7.2,12.36-12.38,17.42-.11.1-.24.17-.37.26-.03-.03-.06-.06-.09-.1Z"/>
        <path class="cls-1" d="m47.8,29.59c.15-3.79,1.16-7.4,2.41-10.94,2.19-6.2,5.08-12.09,8.24-17.84.04-.07.06-.14.11-.2.19-.21.39-.41.58-.61,0,.26.01.52-.01.78-.12,1.47-.47,2.96-.33,4.41.23,2.51.68,5.01,1.19,7.49.41,2,1.1,3.94,1.55,5.92.37,1.63-.16,3.07-1.33,4.26-1.68,1.72-3.77,2.77-5.95,3.69-1.11.47-2.2,1.01-3.26,1.6-1.22.69-2.15,1.67-2.66,3.01-.06.16-.17.3-.26.44-.07-.18-.18-.35-.2-.53-.05-.49-.06-.98-.09-1.48Z"/>
        <path class="cls-1" d="m48.9,74.84c0,1.91-1.64,3.56-3.55,3.59-1.94.03-3.66-1.66-3.65-3.61,0-1.95,1.73-3.64,3.67-3.59,1.92.05,3.54,1.7,3.53,3.61Z"/>
        <path class="cls-1" d="m49.39,79.11c-.02-1.53,1.09-2.69,2.6-2.71,1.54-.03,2.77,1.16,2.79,2.68.01,1.42-1.25,2.69-2.69,2.69-1.49,0-2.68-1.18-2.7-2.65Z"/>
        <path class="cls-1" d="m50.76,71.18c.02-1.24,1.06-2.26,2.27-2.21,1.21.04,2.25,1.13,2.21,2.31-.04,1.23-1.08,2.2-2.31,2.18-1.26-.02-2.19-1.01-2.17-2.28Z"/>
        <path class="cls-1" d="m55.56,46.61c-.04.05-.09.11-.13.16.01-.08.03-.17.04-.25.03.03.06.06.09.1Z"/>
        <path class="cls-1" d="m73.08,55.71s.05-.08.08-.12c0,.02,0,.05,0,.06-.02.02-.06.03-.08.04l.02.02Z"/>
        <path class="cls-1" d="m38.72,72.35s-.08.1-.12.15c.02-.07.03-.15.05-.22l.07.07Z"/>
      </g>
      <g>
        <g>
          <g>
            <path class="cls-2" d="m122.73,37.46c2.92.5,4.98,1.5,6.19,3.02,1.21,1.52,1.82,3.27,1.82,5.26,0,2.3-.71,4.86-2.14,7.68-1.43,2.82-3.24,5.46-5.44,7.91-2.2,2.45-4.64,4.5-7.31,6.14-2.67,1.64-5.24,2.47-7.73,2.47-1.43,0-2.89-.33-4.37-.98-1.49-.65-2.79-1.5-3.91-2.56,0,.19.01.37.05.56.03.19.05.34.05.47,0,1.18-.43,1.77-1.3,1.77-.68,0-1.43-.25-2.23-.74-.81-.5-1.55-1.1-2.23-1.81-.68-.71-1.26-1.44-1.72-2.19-.47-.74-.7-1.4-.7-1.95.68-3.78,1.49-7.43,2.42-10.94.93-3.5,1.92-6.93,2.98-10.28,1.05-3.35,2.14-6.67,3.26-9.96,1.12-3.29,2.23-6.64,3.35-10.05.19-.5.53-.74,1.02-.74.56,0,1.21.22,1.95.65.74.44,1.46.98,2.14,1.63.68.65,1.26,1.35,1.72,2.09.47.74.7,1.4.7,1.95,0,.31-.03.53-.09.65-.68,1.43-1.32,2.84-1.91,4.24-.59,1.4-1.16,2.81-1.72,4.23,2.48-.31,4.73-.98,6.75-2,2.02-1.02,3.75-2.23,5.21-3.63,1.46-1.4,2.57-2.89,3.35-4.47.78-1.58,1.16-3.12,1.16-4.61,0-1.36-.31-2.51-.93-3.44-.62-.93-1.41-1.69-2.37-2.28-.96-.59-2.06-1.01-3.3-1.26-1.24-.25-2.48-.37-3.72-.37-2.05,0-3.99.34-5.82,1.02-1.83.68-3.43,1.6-4.79,2.75-1.37,1.15-2.44,2.45-3.21,3.91-.78,1.46-1.16,2.93-1.16,4.42,0,.31.01.59.05.84.03.25.05.53.05.84,0,.44-.25.65-.74.65s-1.13-.2-1.91-.6c-.78-.4-1.52-.95-2.23-1.63-.71-.68-1.34-1.47-1.86-2.37-.53-.9-.79-1.85-.79-2.84,0-1.12.34-2.14,1.02-3.07,2.36-3.29,5.29-5.74,8.8-7.35,3.5-1.61,7.4-2.42,11.68-2.42,2.79,0,5.38.5,7.77,1.49,2.39.99,4.64,2.82,6.75,5.49,1.3,1.67,2.25,3.3,2.84,4.89.59,1.58.88,3.09.88,4.51,0,2.73-.81,5.18-2.42,7.35-1.61,2.17-3.57,4.06-5.86,5.68Zm-14.98,25.22c1.43-.74,3.02-1.89,4.79-3.44,1.77-1.55,3.43-3.23,4.98-5.03,1.55-1.8,2.85-3.57,3.91-5.31,1.05-1.74,1.58-3.16,1.58-4.28,0-1.18-.54-1.99-1.63-2.42-1.09-.43-2.47-.65-4.14-.65-.62,0-1.24.11-1.86.33-.62.22-1.23.44-1.81.65-.59.22-1.18.43-1.77.65-.59.22-1.16.33-1.72.33-1.06,0-1.86-.33-2.42-.98-.56-.65-1.09-1.47-1.58-2.47-1.55,4.28-2.81,8.25-3.77,11.91-.96,3.66-1.63,6.73-2,9.21.68.68,1.43,1.23,2.23,1.63.81.4,1.64.6,2.51.6.81,0,1.71-.25,2.7-.74Z"/>
            <path class="cls-2" d="m163.37,45.65c.06-.37.31-.56.74-.56.5,0,1.02.25,1.58.74.56.5.84.9.84,1.21-1.37,3.41-3.12,6.08-5.26,8-2.14,1.92-4.39,3.2-6.75,3.82-.56,1.12-1.3,2.25-2.23,3.4-.93,1.15-1.95,2.19-3.07,3.12-1.12.93-2.33,1.71-3.63,2.33-1.3.62-2.61.93-3.91.93-2.36,0-4.34-.48-5.96-1.44-1.61-.96-2.93-2.19-3.96-3.68-1.02-1.49-1.75-3.16-2.19-5.03-.43-1.86-.65-3.69-.65-5.49,0-.93.05-1.86.14-2.79.09-.93.28-1.77.56-2.51.28-.74.62-1.36,1.02-1.86.4-.5.95-.74,1.63-.74.81,0,1.61.25,2.42.74-.37-.99-.56-2.08-.56-3.26,0-1.61.34-3.19,1.02-4.75.68-1.55,1.6-2.95,2.75-4.19,1.15-1.24,2.5-2.25,4.05-3.02,1.55-.78,3.23-1.16,5.03-1.16,1.99,0,3.75.42,5.31,1.26,1.55.84,2.85,1.95,3.91,3.35,1.05,1.4,1.86,2.99,2.42,4.79.56,1.8.84,3.66.84,5.58,0,1.61-.16,3.15-.47,4.61-.31,1.46-.81,2.99-1.49,4.61,1.12-.68,2.19-1.69,3.21-3.02,1.02-1.33,1.91-2.99,2.65-4.98Zm-20.29,17.5c.99-.06,1.95-.57,2.89-1.54.93-.96,1.58-1.88,1.95-2.75-1.92-.5-3.55-1.24-4.89-2.23-1.34-.99-2.81-2.3-4.42-3.91-.06.56-.11,1.12-.14,1.68-.03.56-.05,1.12-.05,1.67,0,.93.06,1.81.19,2.65.12.84.36,1.58.7,2.23.34.65.82,1.18,1.44,1.58.62.4,1.4.6,2.33.6Zm3.72-28.76c-1.68,0-3.07.67-4.19,2-1.12,1.34-1.68,3.06-1.68,5.17,0,1.61.25,3.15.74,4.61.5,1.46,1.16,2.78,2,3.96.84,1.18,1.81,2.17,2.93,2.98,1.12.81,2.33,1.37,3.63,1.68.5-1.36.93-3.01,1.3-4.93.37-1.92.56-3.54.56-4.84,0-3.85-.56-6.56-1.68-8.14-1.12-1.58-2.33-2.4-3.63-2.47Z"/>
            <path class="cls-2" d="m186.27,31.69c1.43.5,2.5,1.78,3.21,3.86.71,2.08,1.07,4.58,1.07,7.49s-.33,5.68-.98,8.66c-.65,2.98-1.61,5.72-2.89,8.24-1.27,2.51-2.85,4.58-4.75,6.19-1.89,1.61-4.11,2.42-6.65,2.42-1.55,0-2.99-.36-4.33-1.07-1.34-.71-2.53-1.66-3.58-2.84-.31,1.24-.56,2.23-.74,2.98-.19.74-.87,1.12-2.05,1.12-.5,0-1.06-.08-1.68-.23-.62-.16-1.2-.39-1.72-.7-.53-.31-.96-.67-1.3-1.07-.34-.4-.51-.88-.51-1.44,0-.12.02-.2.05-.23.03-.03.05-.11.05-.23.37-1.99.85-4.36,1.44-7.12.59-2.76,1.22-5.69,1.91-8.8.68-3.1,1.38-6.27,2.09-9.49.71-3.23,1.38-6.28,2-9.17.62-2.89.18-.77.71-3.1.53-2.33.95-4.17,1.26-5.54.19-.87.96-1.55,2.33-2.05,1.36-.5,2.22-.49,3.52-.49.99,0,1.85.14,2.56.42.71.28,1.07.76,1.07,1.44,0,.5-.17,1.4-.51,2.7-.34,1.3-.84,2.87-1.3,4.75l-.28,1.12c-.65,2.2-1.29,4.45-1.91,6.75,1.24-1.24,2.73-2.36,4.47-3.35,1.74-.99,3.5-1.49,5.31-1.49.74,0,1.46.09,2.14.28Zm-10.61,30.34c.81-.25,1.64-1.1,2.51-2.56.87-1.46,1.64-3.18,2.33-5.17.68-1.99,1.26-4.08,1.72-6.28.47-2.2.7-4.14.7-5.82,0-3.16-.87-4.75-2.61-4.75-.81,0-1.61.48-2.42,1.44-.81.96-1.6,2.17-2.37,3.63-.78,1.46-1.49,3.07-2.14,4.84-.65,1.77-1.24,3.48-1.77,5.12-.53,1.64-.96,3.13-1.3,4.47-.34,1.34-.57,2.25-.7,2.75.62.68,1.36,1.27,2.23,1.77.87.5,1.77.74,2.7.74.25,0,.62-.06,1.12-.19Z"/>
            <path class="cls-2" d="m227.28,48.26c.12-.31.4-.47.84-.47.5,0,1.02.19,1.58.56s.84.81.84,1.3c-1.06,2.48-2.13,4.89-3.21,7.21-1.09,2.33-2.19,4.17-3.3,5.53-.56.67-1.16,1.35-1.81,2.02-.65.67-1.35,1.3-2.09,1.88-.74.58-1.55,1.05-2.42,1.42-.87.36-1.77.55-2.7.55-1.3,0-2.53-.56-3.68-1.67-1.15-1.12-1.88-2.98-2.19-5.58-.68.81-1.47,1.63-2.37,2.47-.9.84-1.85,1.58-2.84,2.23-.99.65-2.03,1.19-3.12,1.63-1.09.43-2.19.65-3.3.65-4.41,0-6.61-3.85-6.61-11.54,0-2.67.31-5.46.93-8.38.62-2.92,1.54-5.58,2.75-8s2.75-4.44,4.61-6.05c1.86-1.61,4-2.48,6.42-2.61,1.49,0,2.89.28,4.19.84,1.3.56,2.48,1.34,3.54,2.33l.19-.65c.19-.87.96-1.55,2.33-2.05,1.36-.5,2.73-.74,4.1-.74.99,0,1.83.13,2.51.37.68.25,1.02.72,1.02,1.4,0,.56-.36,1.79-1.07,3.69-.71,1.9-1.49,4.09-2.33,6.58-.84,2.49-1.6,5.06-2.28,7.7-.68,2.65-1.02,4.93-1.02,6.86,0,.93.12,1.88.37,2.85.25.97.71,1.45,1.4,1.45.56,0,1.18-.36,1.86-1.07.68-.71,1.41-1.69,2.19-2.93.78-1.24,1.57-2.7,2.37-4.37.81-1.68,1.58-3.47,2.33-5.4Zm-27.55,13.21c.43.44.93.65,1.49.65.81,0,1.61-.47,2.42-1.4.81-.93,1.58-2.12,2.33-3.55.74-1.43,1.44-3,2.09-4.72.65-1.71,1.24-3.38,1.77-5,.53-1.62.96-3.07,1.3-4.35.34-1.28.57-2.19.7-2.76-.62-.68-1.37-1.28-2.23-1.78-.87-.5-1.74-.75-2.61-.75-.93,0-1.89.61-2.89,1.82-.99,1.22-1.91,2.77-2.75,4.67s-1.52,4-2.05,6.31c-.53,2.3-.79,4.52-.79,6.63,0,1,.09,1.87.28,2.62.19.75.5,1.28.93,1.59Z"/>
            <path class="cls-2" d="m245.71,39.04c.31.81.64,1.88.98,3.21.34,1.34.64,2.78.88,4.33.25,1.55.45,3.12.6,4.7.15,1.58.23,2.99.23,4.24,0,1.92-.37,3.66-1.12,5.21-.74,1.55-1.71,2.87-2.89,3.96-1.18,1.09-2.51,1.92-4,2.51-1.49.59-3.01.88-4.56.88-2.23,0-4.11-.36-5.63-1.07-1.52-.71-2.75-1.64-3.68-2.79-.93-1.15-1.6-2.43-2-3.86-.4-1.43-.6-2.85-.6-4.28,0-1.67.19-3.26.56-4.75.37-1.49.85-2.82,1.44-4,.59-1.18,1.24-2.11,1.95-2.79.71-.68,1.44-1.02,2.19-1.02.62,0,1.26.19,1.91.56s1.24.84,1.77,1.4c.53.56.95,1.13,1.26,1.72.31.59.47,1.1.47,1.54,0,.31-.12.56-.37.74-1.18.62-2.03,1.61-2.56,2.98-.53,1.37-.79,2.76-.79,4.19,0,1.61.31,3.07.93,4.37.62,1.3,1.52,1.95,2.7,1.95,1.74,0,2.93-.67,3.58-2,.65-1.33.98-2.99.98-4.98,0-1.74-.19-3.64-.56-5.72-.37-2.08-.79-4.06-1.26-5.96-.47-1.89-.88-3.61-1.26-5.17-.37-1.55-.56-2.67-.56-3.35,0-2.17.65-3.83,1.95-4.98,1.3-1.15,3.04-1.72,5.21-1.72.99,0,1.78.2,2.37.6.59.4,1.04.92,1.35,1.54.31.62.51,1.3.6,2.05.09.74.14,1.46.14,2.14,0,.81-.06,1.41-.19,1.81-.13.4-.3.7-.51.88-.22.19-.47.33-.74.42-.28.09-.54.26-.79.51Z"/>
            <path class="cls-2" d="m308.6,16.55c1.43,1.8,2.45,3.54,3.07,5.21.62,1.68.93,3.29.93,4.84,0,1.74-.33,3.37-.98,4.89-.65,1.52-1.51,2.93-2.56,4.24-1.06,1.3-2.28,2.5-3.68,3.58-1.4,1.09-2.87,2.09-4.42,3.02-.56.37-1.27.81-2.14,1.3-.87.5-1.78.99-2.75,1.49-.96.5-1.94.92-2.93,1.26-.99.34-1.92.51-2.79.51-1.24,0-2.22-.5-2.93-1.49-.71-.99-1.32-2.05-1.82-3.16-2.11,5.83-3.62,10.94-4.51,15.31-.9,4.37-1.35,7.46-1.35,9.26,0,.31.01.6.05.88.03.28.05.57.05.88,0,1.18-.43,1.77-1.3,1.77-.68,0-1.43-.25-2.23-.74-.81-.5-1.55-1.09-2.23-1.77s-1.26-1.4-1.72-2.14c-.47-.74-.7-1.4-.7-1.95.68-3.85,1.47-7.52,2.37-11.03.9-3.51,1.88-6.93,2.93-10.28,1.05-3.35,2.16-6.67,3.3-9.96,1.15-3.29,2.28-6.64,3.4-10.05.19-.5.53-.74,1.02-.74.56,0,1.21.23,1.95.7s1.46,1.02,2.14,1.68c.68.65,1.26,1.35,1.72,2.09.47.74.7,1.4.7,1.95,0,.31-.03.53-.09.65-.81,1.74-1.57,3.46-2.28,5.17-.71,1.71-1.41,3.4-2.09,5.07,2.79-.25,5.34-.9,7.63-1.95,2.29-1.05,4.25-2.34,5.86-3.86,1.61-1.52,2.87-3.16,3.77-4.93.9-1.77,1.35-3.46,1.35-5.07,0-1.49-.33-2.71-.98-3.68-.65-.96-1.51-1.75-2.56-2.37-1.06-.62-2.25-1.05-3.58-1.3-1.34-.25-2.68-.37-4.05-.37-2.17,0-4.23.36-6.19,1.07-1.95.71-3.66,1.68-5.12,2.89-1.46,1.21-2.61,2.59-3.44,4.14-.84,1.55-1.26,3.13-1.26,4.75,0,.31.03.6.09.88.06.28.09.57.09.88,0,.5-.28.74-.84.74-.5,0-1.15-.22-1.95-.65-.81-.43-1.6-1.01-2.37-1.72-.78-.71-1.44-1.55-2-2.51-.56-.96-.84-1.97-.84-3.02,0-1.24.37-2.36,1.12-3.35,2.48-3.54,5.6-6.16,9.35-7.86,3.75-1.71,7.96-2.56,12.61-2.56,2.98,0,5.71.54,8.19,1.63,2.48,1.09,4.81,3.02,6.98,5.82Z"/>
            <path class="cls-2" d="m320.41,63.46c-1.12,1.43-2.51,2.68-4.19,3.77-1.68,1.08-3.32,1.63-4.93,1.63-1.37,0-2.65-.57-3.86-1.72-1.21-1.15-1.81-3.15-1.81-6,0-1.49.11-3.09.33-4.79.22-1.71.45-3.33.7-4.89,0-.12.01-.26.05-.42.03-.15.05-.29.05-.42.19-1.12.5-2.7.93-4.75.43-2.05.96-4.31,1.58-6.79.62-2.48,1.26-5.03,1.91-7.63s1.29-5.04,1.91-7.31c.62-2.26,1.13-4.22,1.54-5.86.4-1.64.67-2.71.79-3.21.19-.87.98-1.55,2.37-2.05,1.4-.5,2.78-.74,4.14-.74.93,0,1.75.14,2.47.42.71.28,1.07.76,1.07,1.44,0,.25-.03.43-.09.56-.13.44-.45,1.49-.98,3.16-.53,1.68-1.13,3.68-1.81,6-.68,2.33-1.43,4.84-2.23,7.54-.81,2.7-1.58,5.34-2.33,7.91-.74,2.58-1.41,4.9-2,6.98-.59,2.08-1.01,3.68-1.26,4.79-.31,1.37-.59,2.82-.84,4.37-.25,1.55-.37,2.95-.37,4.19,0,.87.09,1.68.28,2.42.19.74.53,1.12,1.02,1.12.56,0,1.22-.39,2-1.16.78-.78,1.58-1.83,2.42-3.16.84-1.33,1.69-2.89,2.56-4.65.87-1.77,1.68-3.61,2.42-5.54.12-.31.37-.47.74-.47.68,0,1.26.22,1.72.65.47.44.7.84.7,1.21-.5,1.18-1.04,2.41-1.63,3.68-.59,1.27-1.2,2.51-1.81,3.72-.62,1.21-1.23,2.34-1.81,3.4-.59,1.06-1.16,1.92-1.72,2.61Z"/>
            <path class="cls-2" d="m358.11,48.76c.12-.31.4-.47.84-.47.5,0,1.02.19,1.58.56s.84.81.84,1.3c-1.06,2.48-2.13,4.89-3.21,7.21-1.09,2.33-2.19,4.17-3.3,5.53-.56.67-1.16,1.35-1.81,2.02-.65.67-1.35,1.3-2.09,1.88-.74.58-1.55,1.05-2.42,1.42-.87.36-1.77.55-2.7.55-1.3,0-2.53-.56-3.68-1.67-1.15-1.12-1.88-2.98-2.19-5.58-.68.81-1.47,1.63-2.37,2.47-.9.84-1.85,1.58-2.84,2.23-.99.65-2.03,1.19-3.12,1.63-1.09.43-2.19.65-3.3.65-4.41,0-6.61-3.85-6.61-11.54,0-2.67.31-5.46.93-8.38.62-2.92,1.54-5.58,2.75-8s2.75-4.44,4.61-6.05c1.86-1.61,4-2.48,6.42-2.61,1.49,0,2.89.28,4.19.84,1.3.56,2.48,1.34,3.54,2.33l.19-.65c.19-.87.96-1.55,2.33-2.05,1.36-.5,2.73-.74,4.1-.74.99,0,1.83.13,2.51.37.68.25,1.02.72,1.02,1.4,0,.56-.36,1.79-1.07,3.69-.71,1.9-1.49,4.09-2.33,6.58-.84,2.49-1.6,5.06-2.28,7.7-.68,2.65-1.02,4.93-1.02,6.86,0,.93.12,1.88.37,2.85.25.97.71,1.45,1.4,1.45.56,0,1.18-.36,1.86-1.07.68-.71,1.41-1.69,2.19-2.93.78-1.24,1.57-2.7,2.37-4.37.81-1.68,1.58-3.47,2.33-5.4Zm-27.55,13.21c.43.44.93.65,1.49.65.81,0,1.61-.47,2.42-1.4.81-.93,1.58-2.12,2.33-3.55.74-1.43,1.44-3,2.09-4.72.65-1.71,1.24-3.38,1.77-5,.53-1.62.96-3.07,1.3-4.35.34-1.28.57-2.19.7-2.76-.62-.68-1.37-1.28-2.23-1.78-.87-.5-1.74-.75-2.61-.75-.93,0-1.89.61-2.89,1.82-.99,1.22-1.91,2.77-2.75,4.67s-1.52,4-2.05,6.31c-.53,2.3-.79,4.52-.79,6.63,0,1,.09,1.87.28,2.62.19.75.5,1.28.93,1.59Z"/>
            <path class="cls-2" d="m391.74,48.66c.12-.31.4-.47.84-.47.5,0,1.02.19,1.58.56s.84.71.84,1.02c0,.06-.02.11-.05.14-.03.03-.05.08-.05.14-2.54,6.14-5.01,10.67-7.4,13.59-2.39,2.92-5.07,4.37-8.05,4.37-1.3,0-2.47-.34-3.49-1.02-1.02-.68-1.54-1.83-1.54-3.44v-.88c0-.28.06-.57.19-.88.19-.74.43-2,.74-3.77.31-1.77.62-3.71.93-5.82.31-2.11.57-4.22.79-6.33.22-2.11.33-3.88.33-5.31s-.12-2.25-.37-2.65c-.25-.4-.62-.6-1.12-.6-1.3,0-2.54.6-3.72,1.81-1.18,1.21-2.3,2.84-3.35,4.89-1.06,2.05-1.99,4.44-2.79,7.17-.81,2.73-1.49,5.58-2.05,8.56-.25,1.3-.42,2.59-.51,3.86-.09,1.27-.2,2.13-.33,2.56-.13.68-.81,1.22-2.05,1.63-1.24.4-2.51.6-3.82.6-.93,0-1.75-.14-2.47-.42-.71-.28-1.07-.76-1.07-1.44,0-.25.03-.43.09-.56.44-1.67,1.02-3.86,1.77-6.56.74-2.7,1.47-5.51,2.19-8.42.71-2.92,1.33-5.74,1.86-8.47.53-2.73.79-4.93.79-6.61,0-.62.19-1.16.56-1.63.37-.47.87-.87,1.49-1.21.62-.34,1.29-.6,2-.79.71-.19,1.44-.28,2.19-.28s1.38.13,1.91.37c.53.25.79.62.79,1.12s-.05,1.16-.14,2c-.09.84-.2,1.66-.33,2.47.87-.68,1.71-1.38,2.51-2.09.81-.71,1.61-1.36,2.42-1.95.81-.59,1.66-1.07,2.56-1.44.9-.37,1.88-.56,2.93-.56,2.48,0,4.23.67,5.26,2,1.02,1.33,1.54,3.18,1.54,5.54,0,1.61-.16,3.4-.47,5.35-.31,1.95-.67,3.94-1.07,5.96-.4,2.02-.76,3.96-1.07,5.82-.31,1.86-.47,3.48-.47,4.84v.47c.12.13.28.19.47.19.5,0,1.05-.34,1.68-1.02.62-.68,1.29-1.63,2-2.84.71-1.21,1.46-2.64,2.23-4.28.78-1.64,1.54-3.4,2.28-5.26Z"/>
            <path class="cls-2" d="m408.9,48.66c.12-.31.37-.47.74-.47.5,0,1.04.19,1.63.56.59.37.88.71.88,1.02,0,.06-.02.11-.05.14-.03.03-.05.08-.05.14-1.06,2.73-2.13,5.23-3.21,7.49-1.09,2.27-2.23,4.23-3.44,5.91-1.21,1.68-2.54,2.98-4,3.91-1.46.93-3.12,1.4-4.98,1.4-1.61,0-2.98-.67-4.1-2-1.12-1.33-1.68-3.74-1.68-7.21,0-1.74.06-3.37.19-4.89.12-1.52.34-3.16.65-4.93.31-1.77.73-3.74,1.26-5.91.53-2.17,1.19-4.81,2-7.91-.31,0-.6.02-.88.05-.28.03-.57.05-.88.05-.5,0-.93-.11-1.3-.33-.37-.22-.56-.7-.56-1.44,0-1.92.29-3.15.88-3.68.59-.53,1.26-.79,2-.79.37,0,.76.03,1.16.09.4.06.76.09,1.07.09l2.51-9.77c.25-.87,1.05-1.55,2.42-2.05,1.36-.5,2.73-.74,4.1-.74.93,0,1.74.14,2.42.42.68.28,1.02.73,1.02,1.35-.06,0-.34.93-.84,2.79-.5,1.86-1.3,4.56-2.42,8.1h.56c.93,0,1.66.11,2.19.33.53.22.79.98.79,2.28,0,.87-.11,1.71-.33,2.51-.22.81-.42,1.21-.6,1.21h-2.33c-.74,0-1.46-.03-2.14-.09-.93,2.98-1.72,5.55-2.37,7.73-.65,2.17-1.18,4.11-1.58,5.82-.4,1.71-.7,3.24-.88,4.61-.19,1.37-.28,2.76-.28,4.19,0,1.06.11,2.06.33,3.02.22.96.6,1.44,1.16,1.44.5,0,1.1-.39,1.81-1.16.71-.78,1.46-1.83,2.23-3.16.78-1.33,1.58-2.87,2.42-4.61.84-1.74,1.66-3.57,2.47-5.49Z"/>
            <path class="cls-2" d="m427.14,39.54c.31.81.64,1.88.98,3.21.34,1.34.64,2.78.88,4.33.25,1.55.45,3.12.6,4.7.15,1.58.23,2.99.23,4.24,0,1.92-.37,3.66-1.12,5.21-.74,1.55-1.71,2.87-2.89,3.96-1.18,1.09-2.51,1.92-4,2.51-1.49.59-3.01.88-4.56.88-2.23,0-4.11-.36-5.63-1.07-1.52-.71-2.75-1.64-3.68-2.79-.93-1.15-1.6-2.43-2-3.86-.4-1.43-.6-2.85-.6-4.28,0-1.67.19-3.26.56-4.75.37-1.49.85-2.82,1.44-4,.59-1.18,1.24-2.11,1.95-2.79.71-.68,1.44-1.02,2.19-1.02.62,0,1.26.19,1.91.56s1.24.84,1.77,1.4c.53.56.95,1.13,1.26,1.72.31.59.47,1.1.47,1.54,0,.31-.12.56-.37.74-1.18.62-2.03,1.61-2.56,2.98-.53,1.37-.79,2.76-.79,4.19,0,1.61.31,3.07.93,4.37.62,1.3,1.52,1.95,2.7,1.95,1.74,0,2.93-.67,3.58-2,.65-1.33.98-2.99.98-4.98,0-1.74-.19-3.64-.56-5.72-.37-2.08-.79-4.06-1.26-5.96-.47-1.89-.88-3.61-1.26-5.17-.37-1.55-.56-2.67-.56-3.35,0-2.17.65-3.83,1.95-4.98,1.3-1.15,3.04-1.72,5.21-1.72.99,0,1.78.2,2.37.6.59.4,1.04.92,1.35,1.54.31.62.51,1.3.6,2.05.09.74.14,1.46.14,2.14,0,.81-.06,1.41-.19,1.81-.13.4-.3.7-.51.88-.22.19-.47.33-.74.42-.28.09-.54.26-.79.51Z"/>
          </g>
          <path class="cls-2" d="m232.03,30.2c-.23,6.38-5.86,7.56-5.86,7.56,0,0,2.33-2.68,2.33-4.26s-1.21-2.96-2.56-4.33l-.19-.19c-.51-.58-.82-1.33-.82-2.17,0-1.82,1.47-3.28,3.28-3.28.65,0,1.26.19,1.77.53.05.02.11.07.16.11.56.44.96,1.07,1.23,1.77.02.02.03.05.03.07.74,1.89.63,4.21.63,4.21Z"/>
          <path class="cls-2" d="m231.36,25.92c-.26-.7-.67-1.33-1.23-1.77.6.42,1.05,1.03,1.23,1.77Z"/>
          <path class="cls-2" d="m229.98,24.04c-.07-.07-.16-.11-.25-.16"/>
        </g>
        <g>
          <g>
            <path class="cls-1" d="m150.81,99.66c0,1.84-.86,3.48-2.58,4.93-1.72,1.45-3.57,2.48-5.56,3.11-1.99.63-3.73.94-5.23.94-.17,0-.41-.2-.71-.61-.85-1.12-1.28-2.43-1.28-3.93v-.36c2.65,0,4.68-.46,6.07-1.38,1.39-.92,2.09-1.87,2.09-2.86,0-.65-.43-1.33-1.28-2.04-.85-.71-1.79-1.34-2.81-1.89-1.02-.54-1.96-1.27-2.81-2.17-.85-.9-1.28-1.85-1.28-2.83,0-2.07,1.29-3.98,3.88-5.72,2.59-1.74,5.34-2.6,8.27-2.6.34,0,.78.47,1.33,1.4.54.94.83,1.9.87,2.88-.68,0-1.7.2-3.06.61-2.69.85-4.03,1.91-4.03,3.16,0,.89,1.33,2.09,3.98,3.62,1.02.58,1.96,1.38,2.81,2.4.85,1.02,1.29,2.13,1.33,3.32Z"/>
            <path class="cls-1" d="m173.55,103.62l-.05-1.06-.05-.1c-.81,1.25-1.83,2.24-3.05,2.98-1.23.74-2.43,1.11-3.61,1.11-3.53,0-5.55-2.74-6.06-8.23-.07-.88-.1-3.13-.1-6.76s.15-5.79.45-6.46c.87-.71,2.29-1.06,4.24-1.06.77,0,1.24.08,1.41.25,0,.03-.02.49-.05,1.36-.17,2.56-.25,4.53-.25,5.91s.02,2.4.05,3.05c.03.66.06,1.08.08,1.26.02.19.07.51.15.98.08.47.21.88.38,1.21.5.98,1.29,1.46,2.35,1.46s2-.53,2.83-1.59c.82-1.06,1.22-1.81,1.19-2.25v-1.72c0-6.16.1-9.47.3-9.94.17-.3.7-.62,1.59-.96.89-.34,1.77-.5,2.65-.5s1.38.07,1.51.2l-.1,2.37c-.2,4.81-.3,8.53-.3,11.16s.07,4.29.2,5c.24,1.68.69,3.03,1.36,4.04,0,.34-.69.88-2.07,1.62-1.38.74-2.56,1.11-3.53,1.11-.27,0-.57-.5-.91-1.51-.34-1.01-.54-1.99-.61-2.93Z"/>
            <path class="cls-1" d="m200.95,106.95c-3.86,0-6.72-.98-8.59-2.95-1.86-1.96-2.79-4.44-2.79-7.42,0-4.17,1.4-7.49,4.19-9.96,2.79-2.47,6.21-3.71,10.24-3.71.78,0,1.24.02,1.37.05.2.17.3.98.3,2.44s-.2,2.34-.61,2.64h-.36c-2.61,0-4.73.61-6.35,1.83-.68.51-1.27,1.3-1.78,2.39-.51,1.08-.76,2.39-.76,3.91s.46,2.79,1.37,3.79c.91,1,2.39,1.5,4.42,1.5,1.59,0,3-.3,4.22-.91.13-.07.22-.1.25-.1.27.27.41,1.19.41,2.74s-.19,2.49-.56,2.79c-1.12.64-2.78.97-4.98.97Z"/>
            <path class="cls-1" d="m226.48,106.95c-3.8,0-6.62-.97-8.45-2.9-1.83-1.93-2.75-4.37-2.75-7.3,0-4.1,1.38-7.37,4.13-9.8,2.75-2.43,6.11-3.65,10.08-3.65.77,0,1.22.02,1.35.05.2.17.3.97.3,2.4s-.2,2.3-.6,2.6h-.35c-2.57,0-4.65.6-6.25,1.8-.67.5-1.25,1.28-1.75,2.35-.5,1.07-.75,2.35-.75,3.85s.45,2.74,1.35,3.73c.9.98,2.35,1.48,4.35,1.48,1.57,0,2.95-.3,4.15-.9.13-.07.22-.1.25-.1.27.27.4,1.17.4,2.7s-.18,2.45-.55,2.75c-1.1.63-2.74.95-4.9.95Z"/>
            <path class="cls-1" d="m254.86,103.63l-.05-1.06-.05-.1c-.81,1.24-1.82,2.23-3.05,2.97-1.23.74-2.42,1.11-3.6,1.11-3.52,0-5.54-2.73-6.04-8.21-.07-.87-.1-3.12-.1-6.75s.15-5.77.45-6.44c.87-.7,2.28-1.06,4.23-1.06.77,0,1.24.08,1.41.25,0,.03-.02.49-.05,1.36-.17,2.55-.25,4.51-.25,5.89s.02,2.39.05,3.05c.03.65.06,1.07.08,1.26.02.18.07.51.15.98.08.47.21.87.38,1.21.5.97,1.28,1.46,2.34,1.46s2-.53,2.82-1.59c.82-1.06,1.22-1.8,1.18-2.24v-1.71c0-6.14.1-9.45.3-9.92.17-.3.7-.62,1.59-.96.89-.34,1.77-.5,2.64-.5s1.38.07,1.51.2l-.1,2.37c-.2,4.8-.3,8.51-.3,11.13s.07,4.28.2,4.98c.23,1.68.69,3.02,1.36,4.03,0,.34-.69.87-2.06,1.61-1.38.74-2.55,1.11-3.52,1.11-.27,0-.57-.5-.91-1.51-.34-1.01-.54-1.98-.6-2.92Z"/>
            <path class="cls-1" d="m273.03,97.9l.21-9.71c0-2.79-.04-4.67-.11-5.66-.07-.99-.11-1.52-.11-1.59,0-.35.59-.76,1.77-1.22,1.18-.46,2.23-.69,3.15-.69s1.38.07,1.38.21c-.18,1.31-.26-3.56-.26,4.31l-.11,12.96c0,2.43.03,3.93.11,4.5.18,1.55.69,2.96,1.53,4.23,0,.35-.72.92-2.17,1.69-1.45.77-2.68,1.16-3.7,1.16-.28,0-.6-.53-.95-1.59-.35-1.06-.56-1.97-.63-2.75-.07-.78-.11-2.73-.11-5.87Z"/>
            <path class="cls-1" d="m307.88,105.45c-1.16.78-3.42,1.17-6.79,1.17s-5.96-1-7.77-3.01c-1.81-2.01-2.71-4.69-2.71-8.05s1.08-6.27,3.24-8.74c2.16-2.47,5.2-3.7,9.12-3.7,1.6,0,3.07.43,4.42,1.28,1.35.85,2.02,2.34,2.02,4.47s-.93,4.23-2.78,6.31c-1.86,2.08-4.39,3.66-7.59,4.75,0,.41.42.74,1.25,1,.83.26,1.66.38,2.48.38,2.59,0,4.63-.46,6.13-1.38.03-.03.08-.05.15-.05s.1.32.1.97c0,1.98-.43,3.51-1.28,4.6Zm-4.44-16.25c0-.99-.53-1.48-1.58-1.48-1.4,0-2.62.72-3.68,2.15-1.06,1.43-1.58,3.15-1.58,5.16,0,.48.07.72.2.72,1.23-.03,2.64-.74,4.24-2.12,1.6-1.38,2.4-2.85,2.4-4.42Z"/>
            <path class="cls-1" d="m326.46,94.25l.05,1.85v3.81c0,3.57-.07,5.43-.2,5.56-.43.43-1.19.77-2.25,1-1.07.23-1.94.35-2.63.35s-1.03-.05-1.03-.15c.23-1.5.35-3.97.35-7.41l-.15-11.27c0-2.07.08-3.19.25-3.36.37-.37,1-.69,1.9-.98.9-.28,1.74-.43,2.53-.43s1.18.08,1.18.25c-.1.8-.15,1.6-.15,2.4s.05,1.2.15,1.2l.15-.1c.17-.23.42-.53.75-.88.33-.35,1.04-.82,2.13-1.4,1.08-.58,2.12-.88,3.1-.88s1.82.18,2.5.53c.68.35,1.24.78,1.68,1.28.43.5.81,1.22,1.13,2.15.32.94.56,1.8.73,2.6.17.8.3,1.87.4,3.21.1,1.84.15,4.17.15,7.01l-.15,5.86c0,.23-.55.46-1.65.68-1.1.22-1.99.33-2.65.33l-1.65-.25c.33-3,.5-5.92.5-8.74s-.18-4.94-.55-6.36c-.37-1.42-1.1-2.13-2.2-2.13s-2,.3-2.68.9c-.68.6-1.13,1.2-1.33,1.8l-.35.85v.7Z"/>
            <path class="cls-1" d="m357.57,78.22c-.07.81-.16,3.03-.26,6.67,2.65,0,3.97.05,3.97.16,0,1.2-.18,2.27-.53,3.2-.35.93-.69,1.4-1.01,1.4h-2.49c-.07,5.22-.11,2-.11,5.27s.05,5.44.16,6.53c.21,1.83.93,3.33,2.17,4.5,0,.39-.68.95-2.04,1.69-1.36.74-2.64,1.11-3.84,1.11-.11,0-.31-.18-.61-.53-.3-.35-.62-.93-.95-1.75-.34-.81-.55-1.6-.63-2.38-.09-.78-.13-3.54-.13-8.31s.05-1.8.16-6.03l-2.96.05c-.18-.18-.26-.94-.26-2.3s.16-2.18.48-2.46c.77-.04,1.71-.07,2.8-.11,0-2.05-.05-3.37-.16-3.97-.11-.6-.16-.95-.16-1.06,0-.35.61-.76,1.83-1.22,1.22-.46,2.28-.69,3.2-.69s1.38.07,1.38.21Z"/>
            <path class="cls-1" d="m383.6,99.49c0,1.77-.83,3.35-2.48,4.74-1.66,1.39-3.44,2.39-5.36,3-1.92.61-3.6.91-5.04.91-.16,0-.39-.2-.69-.59-.82-1.08-1.23-2.34-1.23-3.79v-.34c2.56,0,4.51-.44,5.85-1.33,1.34-.88,2.02-1.8,2.02-2.75,0-.62-.41-1.28-1.23-1.97-.82-.69-1.72-1.29-2.7-1.82-.98-.52-1.88-1.22-2.7-2.09-.82-.87-1.23-1.78-1.23-2.73,0-2,1.25-3.83,3.74-5.51,2.49-1.67,5.14-2.51,7.96-2.51.33,0,.75.45,1.28,1.35.52.9.8,1.83.84,2.78-.66,0-1.64.2-2.95.59-2.59.82-3.88,1.84-3.88,3.05,0,.85,1.28,2.02,3.83,3.49.98.56,1.88,1.33,2.7,2.31.82.98,1.25,2.05,1.28,3.2Z"/>
          </g>
          <circle class="cls-1" cx="395.57" cy="95.43" r="4.19"/>
          <circle class="cls-1" cx="125.24" cy="95.31" r="4.19"/>
        </g>
      </g>
    </g>
  </g>
</svg>